<svg width="110" height="110" viewBox="0 0 110 110" fill="none" xmlns="http://www.w3.org/2000/svg">
<path d="M55 103.125C42.2365 103.125 29.9957 98.0547 20.9705 89.0295C11.9453 80.0043 6.875 67.7635 6.875 55C6.875 42.2365 11.9453 29.9957 20.9705 20.9705C29.9957 11.9453 42.2365 6.875 55 6.875C67.7635 6.875 80.0043 11.9453 89.0295 20.9705C98.0547 29.9957 103.125 42.2365 103.125 55C103.125 67.7635 98.0547 80.0043 89.0295 89.0295C80.0043 98.0547 67.7635 103.125 55 103.125ZM55 110C69.5869 110 83.5764 104.205 93.8909 93.8909C104.205 83.5764 110 69.5869 110 55C110 40.4131 104.205 26.4236 93.8909 16.1091C83.5764 5.79463 69.5869 0 55 0C40.4131 0 26.4236 5.79463 16.1091 16.1091C5.79463 26.4236 0 40.4131 0 55C0 69.5869 5.79463 83.5764 16.1091 93.8909C26.4236 104.205 40.4131 110 55 110V110Z" fill="#0B3FA8"/>
<path d="M29.4604 65.7731C30.2499 65.3173 31.1881 65.1938 32.0687 65.4297C32.9493 65.6657 33.7001 66.2417 34.156 67.0312C36.2674 70.6911 39.3057 73.73 42.9651 75.8421C46.6245 77.9543 50.7758 79.065 55.001 79.0625C59.2262 79.065 63.3775 77.9543 67.0368 75.8421C70.6963 73.73 73.7346 70.6911 75.846 67.0312C76.07 66.6372 76.3699 66.2913 76.7281 66.0135C77.0864 65.7358 77.4961 65.5316 77.9336 65.4128C78.3711 65.2941 78.8278 65.263 79.2773 65.3214C79.7269 65.3799 80.1605 65.5266 80.5531 65.7533C80.9457 65.98 81.2895 66.2821 81.5649 66.6422C81.8403 67.0023 82.0417 67.4133 82.1576 67.8516C82.2735 68.2899 82.3015 68.7468 82.2401 69.1959C82.1787 69.6451 82.029 70.0777 81.7997 70.4687C79.085 75.1737 75.1788 79.0805 70.4743 81.796C65.7698 84.5116 60.433 85.94 55.001 85.9375C49.569 85.94 44.2322 84.5116 39.5277 81.796C34.8232 79.0805 30.917 75.1737 28.2022 70.4687C27.7464 69.6792 27.6229 68.741 27.8588 67.8604C28.0948 66.9798 28.6709 66.229 29.4604 65.7731ZM48.126 44.6875C48.126 50.38 45.046 55 41.251 55C37.456 55 34.376 50.38 34.376 44.6875C34.376 38.995 37.456 34.375 41.251 34.375C45.046 34.375 48.126 38.995 48.126 44.6875ZM75.626 44.6875C75.626 50.38 72.546 55 68.751 55C64.956 55 61.876 50.38 61.876 44.6875C61.876 38.995 64.956 34.375 68.751 34.375C72.546 34.375 75.626 38.995 75.626 44.6875Z" fill="#0B3FA8"/>
</svg>
